<mxfile host="Electron" modified="2023-08-30T16:50:57.490Z" agent="Mozilla/5.0 (Macintosh; Intel Mac OS X 10_15_7) AppleWebKit/537.36 (KHTML, like Gecko) draw.io/21.6.8 Chrome/114.0.5735.289 Electron/25.5.0 Safari/537.36" etag="NIVLJk6zpyim7jlMvpMu" version="21.6.8" type="device">
  <diagram name="Page-1" id="KXUNYcqoCUW_Km0gRgvi">
    <mxGraphModel dx="1434" dy="802" grid="0" gridSize="10" guides="1" tooltips="1" connect="1" arrows="1" fold="1" page="1" pageScale="1" pageWidth="1169" pageHeight="827" background="#CCCCCC" math="0" shadow="1">
      <root>
        <mxCell id="0" />
        <mxCell id="1" parent="0" />
        <mxCell id="dPI4ZnmGB81j1Z6X8BYE-1" value="AWS Cloud" style="points=[[0,0],[0.25,0],[0.5,0],[0.75,0],[1,0],[1,0.25],[1,0.5],[1,0.75],[1,1],[0.75,1],[0.5,1],[0.25,1],[0,1],[0,0.75],[0,0.5],[0,0.25]];outlineConnect=0;gradientColor=none;html=1;whiteSpace=wrap;fontSize=12;fontStyle=0;container=1;pointerEvents=0;collapsible=0;recursiveResize=0;shape=mxgraph.aws4.group;grIcon=mxgraph.aws4.group_aws_cloud_alt;strokeColor=#232F3E;fillColor=none;verticalAlign=top;align=left;spacingLeft=30;fontColor=#232F3E;dashed=0;" vertex="1" parent="1">
          <mxGeometry x="70" y="25" width="1069" height="478" as="geometry" />
        </mxCell>
        <mxCell id="dPI4ZnmGB81j1Z6X8BYE-2" value="Region" style="points=[[0,0],[0.25,0],[0.5,0],[0.75,0],[1,0],[1,0.25],[1,0.5],[1,0.75],[1,1],[0.75,1],[0.5,1],[0.25,1],[0,1],[0,0.75],[0,0.5],[0,0.25]];outlineConnect=0;gradientColor=none;html=1;whiteSpace=wrap;fontSize=12;fontStyle=0;container=1;pointerEvents=0;collapsible=0;recursiveResize=0;shape=mxgraph.aws4.group;grIcon=mxgraph.aws4.group_region;strokeColor=#147EBA;fillColor=none;verticalAlign=top;align=left;spacingLeft=30;fontColor=#147EBA;dashed=1;" vertex="1" parent="dPI4ZnmGB81j1Z6X8BYE-1">
          <mxGeometry x="48" y="59" width="992" height="381" as="geometry" />
        </mxCell>
        <mxCell id="dPI4ZnmGB81j1Z6X8BYE-4" value="Availability Zone" style="fillColor=none;strokeColor=#147EBA;dashed=1;verticalAlign=top;fontStyle=0;fontColor=#147EBA;whiteSpace=wrap;html=1;" vertex="1" parent="dPI4ZnmGB81j1Z6X8BYE-2">
          <mxGeometry x="658" y="37" width="258" height="308" as="geometry" />
        </mxCell>
        <mxCell id="dPI4ZnmGB81j1Z6X8BYE-3" value="Availability Zone" style="fillColor=none;strokeColor=#147EBA;dashed=1;verticalAlign=top;fontStyle=0;fontColor=#147EBA;whiteSpace=wrap;html=1;" vertex="1" parent="dPI4ZnmGB81j1Z6X8BYE-2">
          <mxGeometry x="116" y="37" width="249" height="313" as="geometry" />
        </mxCell>
        <mxCell id="dPI4ZnmGB81j1Z6X8BYE-5" value="" style="outlineConnect=0;dashed=0;verticalLabelPosition=bottom;verticalAlign=top;align=center;html=1;shape=mxgraph.aws3.rds_db_instance_read_replica;fillColor=#2E73B8;gradientColor=none;movable=0;resizable=0;rotatable=0;deletable=0;editable=0;locked=1;connectable=0;" vertex="1" parent="dPI4ZnmGB81j1Z6X8BYE-2">
          <mxGeometry x="753" y="152" width="49.5" height="66" as="geometry" />
        </mxCell>
        <mxCell id="dPI4ZnmGB81j1Z6X8BYE-6" value="" style="sketch=0;outlineConnect=0;fontColor=#232F3E;gradientColor=none;fillColor=#2E27AD;strokeColor=none;dashed=0;verticalLabelPosition=bottom;verticalAlign=top;align=center;html=1;fontSize=12;fontStyle=0;aspect=fixed;pointerEvents=1;shape=mxgraph.aws4.rds_instance;movable=0;resizable=0;rotatable=0;deletable=0;editable=0;locked=1;connectable=0;" vertex="1" parent="dPI4ZnmGB81j1Z6X8BYE-2">
          <mxGeometry x="188" y="152" width="78" height="78" as="geometry" />
        </mxCell>
        <mxCell id="dPI4ZnmGB81j1Z6X8BYE-15" value="" style="edgeStyle=orthogonalEdgeStyle;html=1;endArrow=block;elbow=vertical;startArrow=block;startFill=1;endFill=1;strokeColor=#545B64;rounded=0;" edge="1" parent="dPI4ZnmGB81j1Z6X8BYE-2" source="dPI4ZnmGB81j1Z6X8BYE-6" target="dPI4ZnmGB81j1Z6X8BYE-5">
          <mxGeometry width="100" relative="1" as="geometry">
            <mxPoint x="429" y="190" as="sourcePoint" />
            <mxPoint x="529" y="190" as="targetPoint" />
            <Array as="points">
              <mxPoint x="388" y="185" />
              <mxPoint x="388" y="185" />
            </Array>
          </mxGeometry>
        </mxCell>
        <mxCell id="dPI4ZnmGB81j1Z6X8BYE-20" value="&amp;nbsp;AZ 1" style="text;html=1;align=center;verticalAlign=middle;resizable=0;points=[];autosize=1;strokeColor=none;fillColor=none;" vertex="1" parent="dPI4ZnmGB81j1Z6X8BYE-2">
          <mxGeometry x="203.5" y="76" width="47" height="26" as="geometry" />
        </mxCell>
        <mxCell id="dPI4ZnmGB81j1Z6X8BYE-21" value="&amp;nbsp;AZ 2" style="text;html=1;align=center;verticalAlign=middle;resizable=0;points=[];autosize=1;strokeColor=none;fillColor=none;" vertex="1" parent="dPI4ZnmGB81j1Z6X8BYE-2">
          <mxGeometry x="754.25" y="76" width="47" height="26" as="geometry" />
        </mxCell>
        <mxCell id="dPI4ZnmGB81j1Z6X8BYE-7" value="users" style="sketch=0;outlineConnect=0;gradientColor=none;fontColor=#545B64;strokeColor=none;fillColor=#879196;dashed=0;verticalLabelPosition=bottom;verticalAlign=top;align=center;html=1;fontSize=12;fontStyle=0;aspect=fixed;shape=mxgraph.aws4.illustration_users;pointerEvents=1;movable=0;resizable=0;rotatable=0;deletable=0;editable=0;locked=1;connectable=0;" vertex="1" parent="1">
          <mxGeometry x="552" y="603" width="100" height="100" as="geometry" />
        </mxCell>
        <mxCell id="dPI4ZnmGB81j1Z6X8BYE-14" value="" style="edgeStyle=orthogonalEdgeStyle;html=1;endArrow=block;elbow=vertical;startArrow=block;startFill=1;endFill=1;strokeColor=#545B64;rounded=0;entryX=0.5;entryY=0.99;entryDx=0;entryDy=0;entryPerimeter=0;" edge="1" parent="1" source="dPI4ZnmGB81j1Z6X8BYE-7" target="dPI4ZnmGB81j1Z6X8BYE-5">
          <mxGeometry width="100" relative="1" as="geometry">
            <mxPoint x="764" y="279" as="sourcePoint" />
            <mxPoint x="864" y="279" as="targetPoint" />
          </mxGeometry>
        </mxCell>
        <mxCell id="dPI4ZnmGB81j1Z6X8BYE-16" value="" style="edgeStyle=orthogonalEdgeStyle;html=1;endArrow=block;elbow=vertical;startArrow=block;startFill=1;endFill=1;strokeColor=#545B64;rounded=0;" edge="1" parent="1" target="dPI4ZnmGB81j1Z6X8BYE-6">
          <mxGeometry width="100" relative="1" as="geometry">
            <mxPoint x="541" y="652.5" as="sourcePoint" />
            <mxPoint x="441" y="652.5" as="targetPoint" />
          </mxGeometry>
        </mxCell>
        <mxCell id="dPI4ZnmGB81j1Z6X8BYE-17" value="Asynchronous Replication" style="text;html=1;align=center;verticalAlign=middle;resizable=0;points=[];autosize=1;strokeColor=none;fillColor=none;" vertex="1" parent="1">
          <mxGeometry x="533" y="242" width="157" height="26" as="geometry" />
        </mxCell>
        <mxCell id="dPI4ZnmGB81j1Z6X8BYE-18" value="Read/Write Access" style="text;html=1;align=center;verticalAlign=middle;resizable=0;points=[];autosize=1;strokeColor=none;fillColor=none;" vertex="1" parent="1">
          <mxGeometry x="391" y="625" width="119" height="26" as="geometry" />
        </mxCell>
        <mxCell id="dPI4ZnmGB81j1Z6X8BYE-19" value="Read Access Only" style="text;html=1;align=center;verticalAlign=middle;resizable=0;points=[];autosize=1;strokeColor=none;fillColor=none;" vertex="1" parent="1">
          <mxGeometry x="712" y="625" width="116" height="26" as="geometry" />
        </mxCell>
      </root>
    </mxGraphModel>
  </diagram>
</mxfile>
